<?xml version="1.0" encoding="UTF-8"?>
<svg version="1.1" xmlns="http://www.w3.org/2000/svg" width="500" height="500">
<path d="M0 0 C0.96850649 -0.00720452 1.93701298 -0.01440903 2.93486816 -0.02183187 C6.20679579 -0.04470103 9.47871572 -0.0601712 12.75068665 -0.07553101 C15.08589875 -0.08997067 17.42110891 -0.10472818 19.75631714 -0.11978149 C41.08726239 -0.25013537 62.41873948 -0.31615927 83.75001812 -0.36762428 C86.60505898 -0.37463346 89.46009951 -0.3817604 92.31513977 -0.38900757 C93.3795802 -0.39170051 93.3795802 -0.39170051 94.46552447 -0.39444785 C105.95912371 -0.42450966 117.45226563 -0.48926931 128.94562569 -0.56769402 C140.74074634 -0.64751305 152.53563016 -0.69330447 164.33101588 -0.70665014 C170.95575831 -0.71506133 177.57977997 -0.7399031 184.20427513 -0.80131912 C190.43682914 -0.85844337 196.66804709 -0.87327185 202.90082359 -0.85544586 C205.18980875 -0.85632635 207.47884732 -0.87266086 209.7675972 -0.90549088 C212.89153683 -0.94797899 216.01052027 -0.93506683 219.13452148 -0.90820312 C220.04240801 -0.93373658 220.95029454 -0.95927003 221.88569278 -0.98557723 C224.50930212 -0.92770851 226.43918007 -0.78078134 228.88471985 0.18081665 C231.46453098 2.90464385 233.17714731 5.85858959 234.88471985 9.18081665 C235.41951965 10.0733313 235.95431946 10.96584595 236.50532532 11.88540649 C237.12238342 13.00229858 237.12238342 13.00229858 237.75190735 14.14175415 C238.23635315 15.01082397 238.72079895 15.8798938 239.21992493 16.77529907 C239.72805725 17.69286987 240.23618958 18.61044067 240.75971985 19.55581665 C245.61460743 28.23670873 250.60166025 36.82660199 255.69721985 45.36831665 C261.22902772 54.64947576 266.66666104 63.97720638 272.00971985 73.36831665 C278.65135819 85.03984615 285.38173907 96.6566156 292.16694641 108.24526978 C295.07832686 113.22060214 297.98108397 118.20096193 300.88471985 123.18081665 C304.37088134 129.15861968 307.85796211 135.13587661 311.3495636 141.11050415 C318.11440188 152.69010282 324.85798739 164.28139783 331.52510071 175.91763306 C334.31731473 180.78191905 337.13101252 185.62148612 340.08784485 190.3878479 C340.56512024 191.16523315 341.04239563 191.94261841 341.53413391 192.74356079 C342.40188995 194.14888009 343.28303188 195.54606917 344.18061829 196.93252563 C345.95140385 199.81402849 346.92701335 201.63337401 346.66279602 205.05337524 C345.84553061 208.33833599 344.71498914 210.70076759 342.9980011 213.61050415 C342.39681458 214.64022339 341.79562805 215.66994263 341.17622375 216.73086548 C340.52315247 217.82809937 339.87008118 218.92533325 339.19721985 220.05581665 C338.51322722 221.22025367 337.83013611 222.38522066 337.14790344 223.5506897 C335.74634839 225.9420807 334.33988085 228.33047003 332.92915344 230.71646118 C330.49555956 234.83488372 328.09220301 238.97071619 325.68843079 243.1065979 C321.39630688 250.48735315 317.07872797 257.85322054 312.7558136 265.2159729 C311.31950841 267.66252453 309.88329814 270.10913183 308.44721985 272.55581665 C308.08923309 273.16570435 307.73124634 273.77559204 307.3624115 274.40396118 C301.64358189 284.14997911 295.97809789 293.92574359 290.34028625 303.71890259 C284.47323406 313.9071595 278.55062551 324.06251376 272.61860657 334.21304321 C270.28935217 338.19986615 267.96291357 342.18832842 265.63667297 346.1769104 C263.88764739 349.17579708 262.13813723 352.17440072 260.3886261 355.17300415 C258.04056974 359.19805639 255.69439893 363.22419968 253.3495636 367.25112915 C247.44617121 377.38671202 241.52786071 387.51332845 235.57221985 397.61831665 C235.01461975 398.56658325 234.45701965 399.51484985 233.88252258 400.49185181 C233.37148987 401.35729614 232.86045715 402.22274048 232.3339386 403.1144104 C231.88365295 403.87809937 231.43336731 404.64178833 230.96943665 405.42861938 C229.88471985 407.18081665 229.88471985 407.18081665 228.88471985 408.18081665 C225.83931054 408.29885635 222.81597006 408.35093864 219.7694397 408.3616333 C218.80093321 408.36883782 217.83242671 408.37604234 216.83457154 408.38346517 C213.56264391 408.40633433 210.29072398 408.4218045 207.01875305 408.43716431 C204.68354095 408.45160397 202.34833079 408.46636148 200.01312256 408.48141479 C178.68217731 408.61176867 157.35070021 408.67779258 136.01942158 408.72925758 C133.16438072 408.73626676 130.30934019 408.7433937 127.45429993 408.75064087 C126.74467298 408.75243616 126.03504602 408.75423145 125.30391522 408.75608115 C113.81031599 408.78614296 102.31717406 408.85090261 90.82381401 408.92932732 C79.02869336 409.00914635 67.23380953 409.05493777 55.43842381 409.06828344 C48.81368139 409.07669463 42.18965973 409.1015364 35.56516457 409.16295242 C29.33261056 409.22007667 23.10139261 409.23490515 16.8686161 409.21707916 C14.57963095 409.21795965 12.29059237 409.23429416 10.0018425 409.26712418 C6.87790287 409.30961229 3.75891942 409.29670013 0.63491821 409.26983643 C-0.72691158 409.30813661 -0.72691158 409.30813661 -2.11625308 409.34721053 C-4.73986242 409.28934182 -6.66974037 409.14241464 -9.11528015 408.18081665 C-11.69509128 405.45698945 -13.40770762 402.50304371 -15.11528015 399.18081665 C-15.65007996 398.288302 -16.18487976 397.39578735 -16.73588562 396.47622681 C-17.14725769 395.73163208 -17.55862976 394.98703735 -17.98246765 394.21987915 C-18.46691345 393.35080933 -18.95135925 392.4817395 -19.45048523 391.58633423 C-19.95861755 390.66876343 -20.46674988 389.75119263 -20.99028015 388.80581665 C-25.84516601 380.12492766 -30.83212509 371.53497216 -35.92778015 362.99331665 C-41.42235378 353.77674023 -46.8157322 344.51086963 -52.11528015 335.18081665 C-57.35518219 325.95685422 -62.68353765 316.79383776 -68.11528015 307.68081665 C-73.89277812 297.9877097 -79.54170676 288.23146708 -85.11528015 278.42056274 C-90.65822341 268.66898825 -96.34307851 259.00877249 -102.0867157 249.37368774 C-109.06768508 237.63504252 -115.82431618 225.77099971 -122.55986023 213.89028931 C-124.06582832 211.16522381 -124.06582832 211.16522381 -125.87968445 208.70181274 C-127.51537965 205.36449036 -127.1266938 203.71833383 -126.11528015 200.18081665 C-124.87870789 197.54141235 -124.87870789 197.54141235 -123.2988739 194.8565979 C-122.70791931 193.84226685 -122.11696472 192.82793579 -121.50810242 191.78286743 C-120.86284607 190.69731567 -120.21758972 189.61176392 -119.55278015 188.49331665 C-118.87483238 187.33736278 -118.19768307 186.1809403 -117.52128601 185.02407837 C-115.39903861 181.40186098 -113.25868858 177.79054095 -111.11528015 174.18081665 C-110.11609558 172.4959314 -110.11609558 172.4959314 -109.09672546 170.77700806 C-106.45813355 166.32952495 -103.81855075 161.88264231 -101.17411804 157.43862915 C-95.67051219 148.17108213 -90.31022679 138.82713942 -84.97929382 129.45962524 C-79.0066422 118.96699335 -72.93332164 108.53518985 -66.83305359 98.11636353 C-63.92167314 93.14103116 -61.01891603 88.16067137 -58.11528015 83.18081665 C-54.62911866 77.20301362 -51.14203789 71.22575669 -47.6504364 65.25112915 C-46.49276173 63.26942993 -45.33520988 61.28765895 -44.17778015 59.30581665 C-43.60430847 58.32387329 -43.03083679 57.34192993 -42.43998718 56.33023071 C-38.73870118 49.98487402 -35.06433261 43.62452941 -31.40263367 37.2562561 C-26.08154691 28.00328499 -20.72787751 18.77375542 -15.24028015 9.61831665 C-14.73416199 8.77301392 -14.22804382 7.92771118 -13.70658875 7.05679321 C-9.55776274 0.16965498 -8.18685763 0.02873948 0 0 Z " fill="#0096B1" transform="translate(140.1152801513672,45.819183349609375)"/>
<path d="M0 0 C1.11802002 0.01659668 2.23604004 0.03319336 3.38793945 0.05029297 C29.40238949 0.77027416 53.74735646 10.15198088 73.125 27.5625 C73.95515625 28.27535156 74.7853125 28.98820312 75.640625 29.72265625 C93.12166739 45.74694511 103.36604406 71.15841135 105.125 94.5625 C105.28713923 99.1258226 105.31006745 103.68410782 105.3125 108.25 C105.32474609 109.44044922 105.33699219 110.63089844 105.34960938 111.85742188 C105.39689271 140.84210806 95.13760478 165.74308893 75.4375 186.75 C60.14980359 201.41856852 41.56681931 208.44758832 21.125 212.5625 C20.00013184 212.82728149 20.00013184 212.82728149 18.85253906 213.09741211 C13.4214952 214.02348968 7.86045865 213.74840542 2.36279297 213.74780273 C0.15962717 213.749966 -2.04301793 213.76807899 -4.24609375 213.78710938 C-16.50748186 213.83844046 -27.12656758 212.47864414 -38.875 208.5625 C-38.875 141.5725 -38.875 74.5825 -38.875 5.5625 C-9.75513499 -0.261473 -9.75513499 -0.261473 0 0 Z " fill="#0096B1" transform="translate(236.875,139.4375)"/>
<path d="M0 0 C19.47288003 -0.09386443 38.9457135 -0.16418392 58.41877365 -0.20724869 C67.46252807 -0.22778494 76.50614109 -0.25573229 85.54980469 -0.30175781 C93.44161117 -0.34190174 101.33331515 -0.36749756 109.22522092 -0.37635398 C113.39548276 -0.38152263 117.56545162 -0.39347879 121.73561859 -0.42292023 C155.68854981 -0.65311609 155.68854981 -0.65311609 172 4 C173.1883633 4.33601856 173.1883633 4.33601856 174.40073395 4.67882538 C204.51527844 13.34035777 230.44513824 32.57396299 246 60 C261.73471451 88.9802028 265.29977895 121.47336257 256.35742188 153.23388672 C247.21402086 183.58204008 225.58357585 206.02630358 198.25390625 221.09765625 C168.6124792 236.86926043 138.08308608 239.33489006 105.11641073 239.20278788 C101.40892386 239.19011373 97.7014322 239.18909709 93.993927 239.18673706 C87.00338384 239.18057053 80.01290474 239.16422654 73.02238953 239.14403808 C65.0511534 239.12152693 57.07991389 239.11064777 49.10865378 239.10064721 C32.73906528 239.07985483 16.36954087 239.04477493 0 239 C0 236.69 0 234.38 0 232 C1.07378906 231.87882813 2.14757812 231.75765625 3.25390625 231.6328125 C4.69013975 231.46384385 6.12633572 231.29455596 7.5625 231.125 C8.26697266 231.04636719 8.97144531 230.96773437 9.69726562 230.88671875 C16.81257203 230.03419356 23.44792143 228.81180142 29 224 C32.58566289 217.69654167 34.14885924 211.81835899 34.15390015 204.60728455 C34.1582824 203.84815264 34.16266465 203.08902073 34.1671797 202.30688483 C34.18056695 199.75528725 34.18674646 197.20372422 34.19287109 194.65209961 C34.20077228 192.82553959 34.20904124 190.99898113 34.21765137 189.17242432 C34.24387519 183.16574597 34.25918195 177.15906064 34.2734375 171.15234375 C34.27879752 169.08380186 34.28417503 167.01526002 34.28956985 164.94671822 C34.3112014 156.33995512 34.32993672 147.73319389 34.34119225 139.12641048 C34.3574213 126.79786559 34.39057072 114.46963638 34.44759309 102.1412105 C34.48632886 93.4701525 34.5058294 84.79917879 34.51111281 76.12803656 C34.514762 70.95096166 34.52673704 65.77422344 34.55921555 60.59724236 C34.5893591 55.72242848 34.59558555 50.84815387 34.58383179 45.9732666 C34.58361156 44.18911793 34.59187423 42.40494379 34.60948563 40.62088203 C34.70966399 29.88357065 34.49992814 20.63256306 26.5703125 12.51171875 C18.54306785 7.79052775 9.18115545 6.36798218 0 6 C0 4.02 0 2.04 0 0 Z M73 18 C73 84.99 73 151.98 73 221 C85.82081309 225.27360436 97.79451269 226.41296546 111.1875 226.375 C112.27575073 226.37418427 112.27575073 226.37418427 113.38598633 226.37335205 C124.71252779 226.33438316 135.17631748 225.47731595 146 222 C146.69899414 221.79632813 147.39798828 221.59265625 148.11816406 221.3828125 C163.87204365 216.79058849 177.44962153 208.71248905 189 197 C189.75539063 196.25492188 190.51078125 195.50984375 191.2890625 194.7421875 C212.70880872 172.43915277 217.48438812 143.72176926 217.21484375 114.01953125 C216.60248875 85.6191911 205.46693564 59.42317068 184.96875 39.62890625 C164.89744079 21.85523375 139.02951169 12.70529203 112.375 12.5625 C111.34632813 12.52962891 110.31765625 12.49675781 109.2578125 12.46289062 C96.47413399 12.37958466 86.17109517 15.36578097 73 18 Z " fill="#000203" transform="translate(125,127)"/>
<path d="M0 0 C1.25783295 0.00703949 2.51566589 0.01407898 3.81161499 0.02133179 C5.20805447 0.03431427 6.60449304 0.04739433 8.00093079 0.06056213 C9.46933196 0.07070488 10.93773629 0.08039856 12.40614319 0.0896759 C16.39555121 0.11615731 20.38488578 0.14893675 24.37423682 0.1828258 C28.54224066 0.21716841 32.71028385 0.24574825 36.87832642 0.27493286 C44.77247995 0.33108669 52.6665842 0.3924419 60.56068403 0.4556542 C69.54725258 0.5273621 78.53386062 0.59328921 87.5204767 0.65872467 C106.00790928 0.79346953 124.49527962 0.93549373 142.98262024 1.08229065 C142.98262024 1.74229065 142.98262024 2.40229065 142.98262024 3.08229065 C93.48262024 3.08229065 43.98262024 3.08229065 -7.01737976 3.08229065 C-7.01737976 5.06229065 -7.01737976 7.04229065 -7.01737976 9.08229065 C-7.67737976 9.08229065 -8.33737976 9.08229065 -9.01737976 9.08229065 C-9.01737976 6.44229065 -9.01737976 3.80229065 -9.01737976 1.08229065 C-5.7558937 -0.00487137 -3.43125007 -0.02597246 0 0 Z " fill="#137E91" transform="translate(132.0173797607422,123.91770935058594)"/>
<path d="M0 0 C-0.66 0 -1.32 0 -2 0 C-2 0.66 -2 1.32 -2 2 C-3.65 2 -5.3 2 -7 2 C-7 68.33 -7 134.66 -7 203 C-7.33 203 -7.66 203 -8 203 C-8 136.01 -8 69.02 -8 0 C-4.29847322 -0.92538169 -3.36541838 -1.08174162 0 0 Z " fill="#188CA6" transform="translate(206,145)"/>
<path d="M0 0 C3.16037214 3.16037214 3.1160534 5.98030032 3.12908131 10.28161639 C3.12616847 11.0004852 3.12325563 11.719354 3.12025452 12.46000671 C3.12110894 13.22619428 3.12196337 13.99238185 3.12284368 14.78178722 C3.12449468 17.35674564 3.1189833 19.93163934 3.11352539 22.5065918 C3.11324341 24.34937539 3.11340146 26.1921591 3.1139679 28.03494263 C3.11425545 33.04494557 3.10836547 38.0549247 3.10139394 43.06492209 C3.09515344 48.29798497 3.09455605 53.53104836 3.09336853 58.76411438 C3.09025727 68.676949 3.08204664 78.58977263 3.07201904 88.5026024 C3.06085154 99.78661541 3.05534584 111.07062893 3.05032361 122.35464609 C3.03986387 145.56977016 3.02226839 168.78488446 3 192 C2.67 192 2.34 192 2 192 C2 131.28 2 70.56 2 8 C1.34 8 0.68 8 0 8 C0 5.36 0 2.72 0 0 Z " fill="#188DA1" transform="translate(157,147)"/>
<path d="M0 0 C0 4.07624109 -1.64202171 5.45313878 -4.265625 8.4140625 C-6.61159381 10.5592502 -8.92183219 11.34039261 -12 12 C-12 13.65 -12 15.3 -12 17 C-14.97851562 17.29296875 -14.97851562 17.29296875 -17.95703125 17.5859375 C-20.29988142 17.92665391 -20.29988142 17.92665391 -23 20 C-25.04296875 20.4140625 -25.04296875 20.4140625 -27.1875 20.625 C-28.445625 20.74875 -29.70375 20.8725 -31 21 C-27.70212322 18.36493179 -24.19889296 16.39939412 -20.5 14.375 C-13.33669391 10.38086252 -5.83089349 5.83089349 0 0 Z " fill="#0B8DA3" transform="translate(347,331)"/>
<path d="M0 0 C8.49182027 9.83007275 7.38268027 25.58346051 7.375 37.8125 C7.37672211 38.53103149 7.37844421 39.24956299 7.38021851 39.98986816 C7.37965689 42.06266027 7.3618466 44.13441402 7.3359375 46.20703125 C7.31345947 48.02424683 7.31345947 48.02424683 7.29052734 49.87817383 C7.01675389 52.81997308 6.54126427 54.51975603 5 57 C5.01047363 56.23034912 5.02094727 55.46069824 5.03173828 54.66772461 C5.40979677 29.62730735 5.40979677 29.62730735 0.5859375 5.171875 C0 3 0 3 0 0 Z " fill="#138598" transform="translate(380,207)"/>
<path d="M0 0 C-0.5259375 0.928125 -0.5259375 0.928125 -1.0625 1.875 C-1.371875 2.57625 -1.68125 3.2775 -2 4 C-1.67 4.66 -1.34 5.32 -1 6 C-2.65 6.66 -4.3 7.32 -6 8 C-6 7.34 -6 6.68 -6 6 C-13.07378932 7.17892622 -13.07378932 7.17892622 -19.75 9.6875 C-23.40146019 11.16212815 -25.25028538 11.006021 -29 10 C-29 9.67 -29 9.34 -29 9 C-28.14019531 8.76925781 -27.28039062 8.53851563 -26.39453125 8.30078125 C-18.90735535 6.23507187 -11.75213444 3.87037638 -4.546875 0.953125 C-2 0 -2 0 0 0 Z " fill="#0494AA" transform="translate(315,352)"/>
<path d="M0 0 C1.18335938 0.00064453 2.36671875 0.00128906 3.5859375 0.00195312 C8.8994436 0.02887968 13.88930499 0.20952641 19.125 1.1875 C19.125 1.5175 19.125 1.8475 19.125 2.1875 C18.19115479 2.18226318 17.25730957 2.17702637 16.29516602 2.17163086 C12.84187204 2.1546238 9.38862233 2.14206698 5.93530273 2.13256836 C4.43855082 2.12752879 2.94180384 2.12069713 1.44506836 2.11206055 C-0.70199807 2.09997841 -2.84899962 2.09426809 -4.99609375 2.08984375 C-6.2895874 2.08460693 -7.58308105 2.07937012 -8.91577148 2.07397461 C-11.76152404 1.84753068 -11.76152404 1.84753068 -12.875 3.1875 C-15.06139453 3.26008946 -17.25000389 3.27123783 -19.4375 3.25 C-21.23380859 3.23646484 -21.23380859 3.23646484 -23.06640625 3.22265625 C-23.99324219 3.21105469 -24.92007813 3.19945312 -25.875 3.1875 C-25.875 2.8575 -25.875 2.5275 -25.875 2.1875 C-17.17962175 0.43431944 -8.85762703 -0.09349717 0 0 Z " fill="#107A8B" transform="translate(236.875,139.8125)"/>
<path d="M0 0 C0.99 0 1.98 0 3 0 C1.46688715 5.51568187 -1.18752444 10.02034852 -4.125 14.875 C-4.59292969 15.65875 -5.06085938 16.4425 -5.54296875 17.25 C-6.69018108 19.16982472 -7.8426007 21.08630561 -9 23 C-9.6171875 21.171875 -9.6171875 21.171875 -10 19 C-9.38125 18.0925 -8.7625 17.185 -8.125 16.25 C-5.50088211 12.23664323 -5.32557849 9.72088817 -5 5 C-3.35 4.67 -1.7 4.34 0 4 C0 2.68 0 1.36 0 0 Z " fill="#138A9D" transform="translate(438,329)"/>
<path d="M0 0 C1.18974621 4.0003061 0.76327609 6.15285216 -1 10 C-2.6396721 11.36639342 -4.30327614 12.70513179 -6 14 C-6 14.99 -6 15.98 -6 17 C-7.98 17.66 -9.96 18.32 -12 19 C-11.55269531 18.29875 -11.10539062 17.5975 -10.64453125 16.875 C-7.07026743 11.26592074 -3.5154951 5.6460982 0 0 Z " fill="#128496" transform="translate(374,297)"/>
<path d="M0 0 C0.33 0.66 0.66 1.32 1 2 C1.66 2.33 2.32 2.66 3 3 C1.625 5 1.625 5 0 7 C-0.66 7 -1.32 7 -2 7 C-1.34 8.65 -0.68 10.3 0 12 C-0.99 12.33 -1.98 12.66 -3 13 C-3.66 12.67 -4.32 12.34 -5 12 C-5 12.66 -5 13.32 -5 14 C-5.99 14.33 -6.98 14.66 -8 15 C-6.62712658 11.30123909 -4.93644547 8.0485524 -2.875 4.6875 C-2.33617188 3.80449219 -1.79734375 2.92148438 -1.2421875 2.01171875 C-0.83226563 1.34785156 -0.42234375 0.68398437 0 0 Z " fill="#108EA4" transform="translate(101,97)"/>
<path d="M0 0 C3.92491136 4.52874388 7.37459686 9.60598991 10 15 C9.67 15.66 9.34 16.32 9 17 C6.525 16.01 6.525 16.01 4 15 C3.67 12.36 3.34 9.72 3 7 C2.01 7 1.02 7 0 7 C0 4.69 0 2.38 0 0 Z " fill="#0E8CA2" transform="translate(429,150)"/>
<path d="M0 0 C0.66 1.32 1.32 2.64 2 4 C1.01 4 0.02 4 -1 4 C-1.103125 4.9075 -1.20625 5.815 -1.3125 6.75 C-2 10 -2 10 -3.625 11.8125 C-5.85981969 15.36789497 -4.70806335 19.00754644 -4 23 C-6.24429581 21.24359458 -6.99974106 20.00075625 -7.93359375 17.2734375 C-8.02406981 12.81349983 -6.39499659 10.31844088 -4.0625 6.625 C-3.67642578 5.98433594 -3.29035156 5.34367188 -2.89257812 4.68359375 C-1.94334402 3.11325585 -0.9736653 1.55530781 0 0 Z " fill="#168A9B" transform="translate(21,234)"/>
<path d="M0 0 C7.60913098 1.2794114 14.73225897 3.42756933 22 6 C22 6.33 22 6.66 22 7 C20.20841511 7.02696365 18.41671527 7.04637917 16.625 7.0625 C15.62726563 7.07410156 14.62953125 7.08570313 13.6015625 7.09765625 C11 7 11 7 9 6 C9 5.01 9 4.02 9 3 C7.700625 2.87625 6.40125 2.7525 5.0625 2.625 C2.84765625 2.4140625 2.84765625 2.4140625 1 2 C0.67 1.34 0.34 0.68 0 0 Z " fill="#10879D" transform="translate(259,142)"/>
<path d="M0 0 C0 3.31069001 -0.58516985 4.40636187 -2.1875 7.23046875 C-2.63867188 8.03291016 -3.08984375 8.83535156 -3.5546875 9.66210938 C-4.03164063 10.49548828 -4.50859375 11.32886719 -5 12.1875 C-5.47695313 13.03248047 -5.95390625 13.87746094 -6.4453125 14.74804688 C-7.6245619 16.83531832 -8.80962497 18.91905982 -10 21 C-10.33 21 -10.66 21 -11 21 C-11 19.35 -11 17.7 -11 16 C-10.01 15.67 -9.02 15.34 -8 15 C-7.7834375 13.824375 -7.7834375 13.824375 -7.5625 12.625 C-7 10 -7 10 -6 8 C-5.34 8 -4.68 8 -4 8 C-4 6.68 -4 5.36 -4 4 C-3.34 4 -2.68 4 -2 4 C-2 3.01 -2 2.02 -2 1 C-1.34 0.67 -0.68 0.34 0 0 Z " fill="#17879C" transform="translate(463,290)"/>
<path d="M0 0 C0.66 0 1.32 0 2 0 C0.23570801 4.97209562 -2.3939166 9.43438061 -5 14 C-6.09991843 10.70024471 -6.35996895 8.45570193 -6 5 C-4.125 3.25 -4.125 3.25 -2 2 C-1.34 1.34 -0.68 0.68 0 0 Z " fill="#108CA5" transform="translate(449,312)"/>
<path d="M0 0 C1.1171875 3.7421875 1.1171875 3.7421875 0.0625 6.0625 C-0.288125 6.701875 -0.63875 7.34125 -1 8 C-1 8.99 -1 9.98 -1 11 C-3.31 12.32 -5.62 13.64 -8 15 C-6.62712658 11.30123909 -4.93644547 8.0485524 -2.875 4.6875 C-2.33617187 3.80449219 -1.79734375 2.92148438 -1.2421875 2.01171875 C-0.83226562 1.34785156 -0.42234375 0.68398437 0 0 Z " fill="#0F8DA3" transform="translate(30,219)"/>
<path d="M0 0 C2.63739762 2.63739762 3.4255233 5.59764881 4.5625 9.0625 C4.78574951 9.73482666 5.00899902 10.40715332 5.23901367 11.09985352 C6.83533111 16.08019646 7.72421117 20.76001218 8 26 C6.13747173 23.20620759 5.68374185 22.07899756 5.125 18.9375 C4.21409489 14.44174253 2.65276408 10.45024269 0.8046875 6.26171875 C0 4 0 4 0 0 Z " fill="#147E94" transform="translate(332,199)"/>
<path d="M0 0 C0.33 0.99 0.66 1.98 1 3 C0.67 3.66 0.34 4.32 0 5 C-0.66 5 -1.32 5 -2 5 C-2.226875 5.70125 -2.45375 6.4025 -2.6875 7.125 C-4.31656867 10.69343613 -6.40640731 13.06514511 -9 16 C-9.99 15.67 -10.98 15.34 -12 15 C-11.46890625 14.41992188 -10.9378125 13.83984375 -10.390625 13.2421875 C-6.55640802 9.00215924 -2.99783758 4.87148607 0 0 Z " fill="#001820" transform="translate(326,308)"/>
<path d="M0 0 C1 3 1 3 -0.1875 6.4375 C-1.86389131 9.73247603 -3.3462668 11.52318234 -6 14 C-6.33 14.99 -6.66 15.98 -7 17 C-7.66 17 -8.32 17 -9 17 C-7.51481201 12.95698825 -5.57122002 9.38853744 -3.375 5.6875 C-2.74335937 4.61886719 -2.11171875 3.55023438 -1.4609375 2.44921875 C-0.97882813 1.64097656 -0.49671875 0.83273438 0 0 Z " fill="#14899E" transform="translate(123,59)"/>
<path d="M0 0 C3.92491136 4.52874388 7.37459686 9.60598991 10 15 C9.67 15.66 9.34 16.32 9 17 C5.67098753 14.78065836 5.24976756 13.65316671 4 10 C3.34 10 2.68 10 2 10 C2 8.02 2 6.04 2 4 C1.34 4 0.68 4 0 4 C0 2.68 0 1.36 0 0 Z " fill="#18879C" transform="translate(475,229)"/>
<path d="M0 0 C3.26906207 3.26906207 4.91626844 5.90695586 7 10 C6.67 10.66 6.34 11.32 6 12 C5.34 11.67 4.68 11.34 4 11 C4 10.01 4 9.02 4 8 C2.35 8.33 0.7 8.66 -1 9 C-0.67 6.03 -0.34 3.06 0 0 Z " fill="#108CA3" transform="translate(419,133)"/>
<path d="M0 0 C0.99 0 1.98 0 3 0 C1.23570801 4.97209562 -1.3939166 9.43438061 -4 14 C-4.33 14 -4.66 14 -5 14 C-5.1875 11.125 -5.1875 11.125 -5 8 C-4.01 7.34 -3.02 6.68 -2 6 C-0.78715124 2.94570927 -0.78715124 2.94570927 0 0 Z " fill="#158AA0" transform="translate(401,393)"/>
<path d="M0 0 C1.65 0.33 3.3 0.66 5 1 C3.68775452 4.93673644 2.08089673 7.22719294 -1 10 C-1.125 2.25 -1.125 2.25 0 0 Z " fill="#0A90A5" transform="translate(322,305)"/>
<path d="M0 0 C1.32022153 2.64044305 1.40974493 4.06349469 1 7 C-1.3125 9.8125 -1.3125 9.8125 -4 12 C-4.99 12 -5.98 12 -7 12 C-4.69 8.04 -2.38 4.08 0 0 Z " fill="#1088A4" transform="translate(55,176)"/>
<path d="M0 0 C1.53311546 3.93952454 0.40433339 6.71641591 -0.875 10.625 C-1.24367188 11.77226562 -1.61234375 12.91953125 -1.9921875 14.1015625 C-3 17 -3 17 -4 19 C-4.66 19 -5.32 19 -6 19 C-5.72736328 18.19949219 -5.72736328 18.19949219 -5.44921875 17.3828125 C-3.5063945 11.62408217 -1.71615568 5.83006078 0 0 Z " fill="#118296" transform="translate(381,278)"/>
<path d="M0 0 C1.29474635 3.88423904 0.63372371 5.28699157 -1 9 C-3.625 11.875 -3.625 11.875 -6 14 C-6 10.27792613 -4.82035432 8.53604411 -3 5.3125 C-2.443125 4.31863281 -1.88625 3.32476562 -1.3125 2.30078125 C-0.879375 1.54152344 -0.44625 0.78226563 0 0 Z " fill="#138C9E" transform="translate(47,189)"/>
<path d="M0 0 C1.39195915 4.17587745 -0.17676781 6.13474776 -2 10 C-2.66 10 -3.32 10 -4 10 C-4 10.99 -4 11.98 -4 13 C-4.99 13.33 -5.98 13.66 -7 14 C-5.53967505 8.68972746 -3.01679014 4.53669968 0 0 Z " fill="#1584A2" transform="translate(113,76)"/>
<path d="M0 0 C0 4.35397992 -2.21658553 6.11482831 -5.04296875 9.2578125 C-7.5848218 11.52061981 -9.6252665 12 -13 12 C-8.87675353 7.74790208 -4.48717034 3.86364295 0 0 Z " fill="#001520" transform="translate(313,324)"/>
<path d="M0 0 C1.32 0.33 2.64 0.66 4 1 C2.90220176 2.15193623 1.79650554 3.29634937 0.6875 4.4375 C0.07261719 5.07558594 -0.54226563 5.71367187 -1.17578125 6.37109375 C-3 8 -3 8 -6 9 C-5.34 7.02 -4.68 5.04 -4 3 C-2.68 3 -1.36 3 0 3 C0 2.01 0 1.02 0 0 Z " fill="#0F8C9F" transform="translate(310,323)"/>
<path d="M0 0 C4.13621084 3.3810038 7.81316569 6.66590534 11 11 C9.68 10.67 8.36 10.34 7 10 C7 9.34 7 8.68 7 8 C6.34 8 5.68 8 5 8 C5 7.34 5 6.68 5 6 C3.68 6 2.36 6 1 6 C0.67 4.02 0.34 2.04 0 0 Z " fill="#001923" transform="translate(346,157)"/>
<path d="M0 0 C0.33 0.99 0.66 1.98 1 3 C-0.8956985 5.84354775 -2.09864553 7.2933209 -5 9 C-7.25 8.6875 -7.25 8.6875 -9 8 C-7.88625 7.13375 -7.88625 7.13375 -6.75 6.25 C-4.33912357 4.27746474 -2.15957299 2.23955718 0 0 Z " fill="#010F19" transform="translate(155,349)"/>
<path d="M0 0 C5.21983494 0.25462609 7.80651897 2.11257075 11.58203125 5.4296875 C13 7 13 7 14 10 C13.01 10.495 13.01 10.495 12 11 C11.67 10.01 11.34 9.02 11 8 C10.01 7.67 9.02 7.34 8 7 C7.67 6.01 7.34 5.02 7 4 C3.49705129 2.28432339 3.49705129 2.28432339 0 1 C0 0.67 0 0.34 0 0 Z " fill="#148899" transform="translate(143,136)"/>
<path d="M0 0 C11.52164009 0.96355353 11.52164009 0.96355353 17 2 C17 2.33 17 2.66 17 3 C11.555 3.495 11.555 3.495 6 4 C6 3.34 6 2.68 6 2 C3.03 1.505 3.03 1.505 0 1 C0 0.67 0 0.34 0 0 Z " fill="#00151D" transform="translate(277,128)"/>
<path d="M0 0 C0.66 0 1.32 0 2 0 C2 0.99 2 1.98 2 3 C2.99 3 3.98 3 5 3 C5.66 5.97 6.32 8.94 7 12 C0 3.55172414 0 3.55172414 0 0 Z " fill="#128B9E" transform="translate(39,295)"/>
<path d="M0 0 C1.29065057 3.8719517 0.22324098 6.44232601 -0.9375 10.1875 C-1.23043945 11.16879883 -1.23043945 11.16879883 -1.52929688 12.16992188 C-2.01182563 13.78227407 -2.50490205 15.39146289 -3 17 C-4.078125 15.2109375 -4.078125 15.2109375 -5 13 C-3.75 9.625 -3.75 9.625 -2.87109375 7.81640625 C-1.66063775 5.29236123 -0.84482826 2.66445837 0 0 Z " fill="#001119" transform="translate(382,271)"/>
<path d="M0 0 C0.99 0.33 1.98 0.66 3 1 C4.1875 4.0625 4.1875 4.0625 5 7 C5.66 7 6.32 7 7 7 C7 8.65 7 10.3 7 12 C0 3.55172414 0 3.55172414 0 0 Z " fill="#17889C" transform="translate(96,393)"/>
<path d="M0 0 C-0.33 0.99 -0.66 1.98 -1 3 C-3.14453125 3.984375 -3.14453125 3.984375 -5.8125 4.75 C-6.68519531 5.01296875 -7.55789063 5.2759375 -8.45703125 5.546875 C-11.05434119 6.00968292 -12.53376528 5.85082224 -15 5 C-12.8765984 4.16260219 -10.7512272 3.33019717 -8.625 2.5 C-7.44164062 2.0359375 -6.25828125 1.571875 -5.0390625 1.09375 C-2 0 -2 0 0 0 Z " fill="#10818E" transform="translate(315,352)"/>
<path d="M0 0 C-6.02971393 2.51238081 -10.49489338 3.10841844 -17 3 C-17 2.67 -17 2.34 -17 2 C-14.91952703 1.4678559 -12.83547707 0.94968214 -10.75 0.4375 C-9.58984375 0.14746094 -8.4296875 -0.14257812 -7.234375 -0.44140625 C-4.27909017 -0.95179964 -2.75565899 -1.02996165 0 0 Z " fill="#001D29" transform="translate(275,349)"/>
<path d="M0 0 C0 3 0 3 -2.1875 5.625 C-5.00654002 8.00552268 -6.39755548 8.69121904 -10 9 C-6.83047153 5.73991357 -3.60062011 2.77762123 0 0 Z " fill="#128999" transform="translate(347,331)"/>
<path d="M0 0 C1.13199353 0.9080162 2.25532363 1.82683826 3.375 2.75 C4.00148438 3.26046875 4.62796875 3.7709375 5.2734375 4.296875 C7.08312318 6.08199481 8.00117455 7.67949644 9 10 C6.51339545 9.6121322 5.27654781 9.29037521 3.515625 7.44140625 C3.09796875 6.82136719 2.6803125 6.20132813 2.25 5.5625 C1.82203125 4.94503906 1.3940625 4.32757813 0.953125 3.69140625 C0 2 0 2 0 0 Z " fill="#138094" transform="translate(313,171)"/>
<path d="M0 0 C1.32 0 2.64 0 4 0 C4 1.98 4 3.96 4 6 C4.66 6.33 5.32 6.66 6 7 C5.67 7.99 5.34 8.98 5 10 C4.16121545 8.71186658 3.32913217 7.41936744 2.5 6.125 C2.0359375 5.40570313 1.571875 4.68640625 1.09375 3.9453125 C0 2 0 2 0 0 Z " fill="#138AA1" transform="translate(75,357)"/>
<path d="M0 0 C1.65 0 3.3 0 5 0 C3.8141763 3.37503669 2.72426311 5.64722731 0 8 C0 5.36 0 2.72 0 0 Z " fill="#0F8BA1" transform="translate(370,443)"/>
<path d="M0 0 C1.46726798 3.81489674 0.43336419 6.29011622 -1 10 C-1.66 10 -2.32 10 -3 10 C-2.25 3.375 -2.25 3.375 0 0 Z " fill="#0C889D" transform="translate(374,297)"/>
<path d="M0 0 C0.66 0.99 1.32 1.98 2 3 C2.99 3 3.98 3 5 3 C4.67 3.99 4.34 4.98 4 6 C4.66 6.33 5.32 6.66 6 7 C5 9 5 9 3 10 C1.68 7.03 0.36 4.06 -1 1 C-0.67 0.67 -0.34 0.34 0 0 Z " fill="#0C879B" transform="translate(373,189)"/>
<path d="M0 0 C2.26562673 2.26562673 2.94462749 3.84160705 3.09765625 7.04296875 C3.06510417 9.02864583 3.03255208 11.01432292 3 13 C2.67 13 2.34 13 2 13 C2 11.35 2 9.7 2 8 C1.34 8 0.68 8 0 8 C0 5.36 0 2.72 0 0 Z " fill="#117C8D" transform="translate(157,147)"/>
<path d="M0 0 C4 4.75 4 4.75 4 7 C2.35 7 0.7 7 -1 7 C-1 3 -1 3 0 0 Z " fill="#128AA1" transform="translate(396,93)"/>
<path d="M0 0 C0.33 0.66 0.66 1.32 1 2 C-0.125 4.5625 -0.125 4.5625 -2 7 C-4.6875 7.8125 -4.6875 7.8125 -7 8 C-6.02133662 6.85373678 -5.04205413 5.70800212 -4.0625 4.5625 C-3.51722656 3.92441406 -2.97195313 3.28632813 -2.41015625 2.62890625 C-1.63204305 1.73008851 -0.84063472 0.84063472 0 0 Z " fill="#0F8095" transform="translate(361,317)"/>
<path d="M0 0 C0.66 0 1.32 0 2 0 C2.33 0.99 2.66 1.98 3 3 C3.66 3.33 4.32 3.66 5 4 C5.40729228 6.32156597 5.74438677 8.6568787 6 11 C2.90407165 7.4912812 1.25805377 4.50802601 0 0 Z " fill="#18869A" transform="translate(31,281)"/>
<path d="M0 0 C0.33 0 0.66 0 1 0 C1.08114106 1.77007714 1.13925505 3.54122098 1.1875 5.3125 C1.23970703 6.79169922 1.23970703 6.79169922 1.29296875 8.30078125 C1 11 1 11 -0.51171875 12.85546875 C-1.00285156 13.23316406 -1.49398438 13.61085938 -2 14 C-1.43393721 9.30976546 -0.81462495 4.65499974 0 0 Z " fill="#117D91" transform="translate(384,264)"/>
<path d="M0 0 C-0.66 0 -1.32 0 -2 0 C-2 0.66 -2 1.32 -2 2 C-3.65 2 -5.3 2 -7 2 C-7 3.65 -7 5.3 -7 7 C-7.33 7 -7.66 7 -8 7 C-8 4.69 -8 2.38 -8 0 C-4.94736336 -0.98120464 -3.05263664 -0.98120464 0 0 Z " fill="#138599" transform="translate(206,145)"/>
<path d="M0 0 C4.42857143 5.14285714 4.42857143 5.14285714 5 9 C4.34 9 3.68 9 3 9 C2.67 8.34 2.34 7.68 2 7 C1.34 7 0.68 7 0 7 C0 4.69 0 2.38 0 0 Z " fill="#1388A3" transform="translate(404,107)"/>
<path d="M0 0 C4.42857143 5.14285714 4.42857143 5.14285714 5 9 C3.35 9 1.7 9 0 9 C0.66 7.35 1.32 5.7 2 4 C1.34 4 0.68 4 0 4 C0 2.68 0 1.36 0 0 Z " fill="#0F8A9C" transform="translate(386,76)"/>
<path d="M0 0 C2.54845496 2.45539341 4.3743846 4.83004997 6 8 C5.67 8.66 5.34 9.32 5 10 C4.01 9.67 3.02 9.34 2 9 C1.26953125 6.93359375 1.26953125 6.93359375 0.8125 4.4375 C0.65394531 3.61121094 0.49539063 2.78492188 0.33203125 1.93359375 C0.16767578 0.97646484 0.16767578 0.97646484 0 0 Z " fill="#128B98" transform="translate(377,61)"/>
<path d="M0 0 C-1.28913487 0.67154933 -2.58140204 1.33708859 -3.875 2 C-4.59429687 2.37125 -5.31359375 2.7425 -6.0546875 3.125 C-8 4 -8 4 -10 4 C-9 1 -9 1 -6.6875 -0.25 C-3.83402593 -1.04631835 -2.75197675 -0.8214856 0 0 Z " fill="#00151F" transform="translate(324,348)"/>
<path d="M0 0 C0.625 1.8125 0.625 1.8125 1 4 C0.01 5.485 0.01 5.485 -1 7 C-1.66 7 -2.32 7 -3 7 C-3.33 7.99 -3.66 8.98 -4 10 C-4.33 9.34 -4.66 8.68 -5 8 C-4.00390625 6.0546875 -4.00390625 6.0546875 -2.5625 3.875 C-2.08941406 3.15054688 -1.61632812 2.42609375 -1.12890625 1.6796875 C-0.75636719 1.12539062 -0.38382812 0.57109375 0 0 Z " fill="#158A9B" transform="translate(80,133)"/>
<path d="M0 0 C1.32 0 2.64 0 4 0 C3.39816251 2.02045442 2.72693904 4.02111039 2 6 C1.01 6.495 1.01 6.495 0 7 C0 4.69 0 2.38 0 0 Z " fill="#138B9E" transform="translate(380,427)"/>
<path d="M0 0 C0.66 0.33 1.32 0.66 2 1 C0.68 3.31 -0.64 5.62 -2 8 C-2.33 8 -2.66 8 -3 8 C-3 6.02 -3 4.04 -3 2 C-2.01 2 -1.02 2 0 2 C0 1.34 0 0.68 0 0 Z " fill="#1688A0" transform="translate(393,409)"/>
<path d="M0 0 C1.98 0 3.96 0 6 0 C3.63707344 2.52588702 2.33537489 3.88820837 -1 5 C-0.67 3.35 -0.34 1.7 0 0 Z " fill="#12899E" transform="translate(298,332)"/>
<path d="M0 0 C1.32 0.33 2.64 0.66 4 1 C4.33 3.31 4.66 5.62 5 8 C2.27573689 5.64722731 1.1858237 3.37503669 0 0 Z " fill="#118C9C" transform="translate(26,273)"/>
<path d="M0 0 C0.66 0.99 1.32 1.98 2 3 C2.99 3 3.98 3 5 3 C4.67 3.99 4.34 4.98 4 6 C2.35 6 0.7 6 -1 6 C-0.67 4.02 -0.34 2.04 0 0 Z " fill="#0B91A8" transform="translate(39,203)"/>
<path d="M0 0 C2.50037734 2.17424117 3.43628586 3.73045798 4 7 C2.68 6.67 1.36 6.34 0 6 C0 4.02 0 2.04 0 0 Z " fill="#128B9C" transform="translate(444,176)"/>
<path d="M0 0 C1.45947705 0.06006078 2.91779272 0.1488689 4.375 0.25 C5.59316406 0.31960937 5.59316406 0.31960937 6.8359375 0.390625 C9 1 9 1 10.2890625 3.046875 C10.64097656 4.01367188 10.64097656 4.01367188 11 5 C7.27566618 3.7874262 3.62197194 2.49140021 0 1 C0 0.67 0 0.34 0 0 Z " fill="#001620" transform="translate(278,147)"/>
<path d="M0 0 C7.50769231 -0.36923077 7.50769231 -0.36923077 10 1.5 C10.495 2.2425 10.495 2.2425 11 3 C9.741875 2.87625 8.48375 2.7525 7.1875 2.625 C6.12595703 2.52058594 6.12595703 2.52058594 5.04296875 2.4140625 C3 2 3 2 0 0 Z " fill="#011B2A" transform="translate(136,133)"/>
<path d="M0 0 C0.99 0.33 1.98 0.66 3 1 C3 2.65 3 4.3 3 6 C2.34 6 1.68 6 1 6 C0.34 4.35 -0.32 2.7 -1 1 C-0.67 0.67 -0.34 0.34 0 0 Z " fill="#0692A9" transform="translate(393,403)"/>
<path d="M0 0 C-3.44833324 2.05257931 -5.31661591 3.0632763 -9.375 2.6875 C-10.24125 2.460625 -11.1075 2.23375 -12 2 C-12 1.67 -12 1.34 -12 1 C-3.96428571 -1.27678571 -3.96428571 -1.27678571 0 0 Z " fill="#148495" transform="translate(298,360)"/>
<path d="M0 0 C0.99 0.33 1.98 0.66 3 1 C1.35 2.65 -0.3 4.3 -2 6 C-2.33 5.01 -2.66 4.02 -3 3 C-2.01 2.67 -1.02 2.34 0 2 C0 1.34 0 0.68 0 0 Z " fill="#108898" transform="translate(153,348)"/>
<path d="M0 0 C4.42857143 5.14285714 4.42857143 5.14285714 5 9 C4.01 8.67 3.02 8.34 2 8 C2 6.68 2 5.36 2 4 C1.34 4 0.68 4 0 4 C0 2.68 0 1.36 0 0 Z " fill="#17869E" transform="translate(461,205)"/>
<path d="M0 0 C2.875 -0.125 2.875 -0.125 6 0 C6.66 0.66 7.32 1.32 8 2 C7.34 2 6.68 2 6 2 C5.67 2.99 5.34 3.98 5 5 C3.35 3.35 1.7 1.7 0 0 Z " fill="#0F8AA2" transform="translate(344,155)"/>
<path d="M0 0 C0.33 1.32 0.66 2.64 1 4 C0.34 4 -0.32 4 -1 4 C-1.33 5.65 -1.66 7.3 -2 9 C-2.66 9 -3.32 9 -4 9 C-2.94124926 5.59687262 -1.99097846 2.98646769 0 0 Z " fill="#1A87A0" transform="translate(92,112)"/>
</svg>
